<svg width="17.780273" height="17.104492" viewBox="0 0 17.7803 17.1045" fill="none" xmlns="http://www.w3.org/2000/svg" xmlns:xlink="http://www.w3.org/1999/xlink">
	<desc>
			Created with Pixso.
	</desc>
	<defs/>
	<path id="Vector" d="M17.68 14.96C17.64 14.89 17.58 14.83 17.52 14.78C17.45 14.74 17.38 14.7 17.3 14.68C17.22 14.67 17.14 14.66 17.06 14.68C16.98 14.69 16.91 14.72 16.84 14.76C15.91 15.34 14.86 15.71 13.77 15.83C12.68 15.95 11.58 15.82 10.54 15.46C9.51 15.1 8.57 14.51 7.79 13.74C7.01 12.96 6.42 12.02 6.05 10.99L13.21 10.99C13.37 10.99 13.52 10.93 13.64 10.81C13.75 10.7 13.82 10.54 13.82 10.38C13.82 10.22 13.75 10.06 13.64 9.95C13.52 9.83 13.37 9.77 13.21 9.77L5.73 9.77C5.59 8.96 5.59 8.13 5.73 7.33L13.21 7.33C13.37 7.33 13.52 7.26 13.64 7.15C13.75 7.03 13.82 6.88 13.82 6.71C13.82 6.55 13.75 6.4 13.64 6.28C13.52 6.17 13.37 6.1 13.21 6.1L6.05 6.1C6.42 5.07 7.01 4.14 7.78 3.36C8.56 2.59 9.5 2 10.53 1.64C11.56 1.27 12.66 1.15 13.75 1.26C14.83 1.38 15.88 1.74 16.81 2.31C16.95 2.4 17.12 2.43 17.28 2.39C17.43 2.35 17.57 2.26 17.66 2.12C17.74 1.98 17.77 1.81 17.73 1.66C17.7 1.5 17.6 1.36 17.46 1.27C16.34 0.58 15.08 0.16 13.77 0.03C12.47 -0.09 11.15 0.09 9.92 0.55C8.69 1.02 7.59 1.76 6.69 2.73C5.8 3.69 5.14 4.84 4.76 6.1L0.61 6.1C0.44 6.1 0.29 6.17 0.17 6.28C0.06 6.4 0 6.55 0 6.71C0 6.88 0.06 7.03 0.17 7.15C0.29 7.26 0.44 7.33 0.61 7.33L4.5 7.33C4.44 7.73 4.4 8.14 4.4 8.55C4.4 8.96 4.44 9.36 4.5 9.77L0.61 9.77C0.44 9.77 0.29 9.83 0.17 9.95C0.06 10.06 0 10.22 0 10.38C0 10.54 0.06 10.7 0.17 10.81C0.29 10.93 0.44 10.99 0.61 10.99L4.76 10.99C5.14 12.25 5.8 13.41 6.7 14.37C7.6 15.34 8.7 16.08 9.94 16.55C11.17 17.01 12.49 17.19 13.8 17.06C15.11 16.93 16.37 16.5 17.49 15.8C17.56 15.76 17.62 15.7 17.66 15.64C17.71 15.57 17.74 15.5 17.76 15.42C17.78 15.34 17.78 15.26 17.77 15.18C17.75 15.1 17.72 15.03 17.68 14.96Z" fill="#000000" fill-opacity="1.000000" fill-rule="nonzero"/>
</svg>
