<svg width="12.031250" height="18.906250" viewBox="0 0 12.0312 18.9062" fill="none" xmlns="http://www.w3.org/2000/svg" xmlns:xlink="http://www.w3.org/1999/xlink">
	<desc>
			Created with Pixso.
	</desc>
	<defs/>
	<path id="Vector" d="M8.07 8.93L6.53 8.93L6.53 3.09L7.39 3.09C8.16 3.09 8.9 3.4 9.45 3.95C10 4.49 10.31 5.24 10.31 6.01C10.31 6.15 10.36 6.28 10.46 6.37C10.56 6.47 10.69 6.53 10.82 6.53C10.96 6.53 11.09 6.47 11.19 6.37C11.28 6.28 11.34 6.15 11.34 6.01C11.34 4.96 10.92 3.96 10.18 3.22C9.44 2.48 8.43 2.06 7.39 2.06L6.53 2.06L6.53 0.51C6.53 0.37 6.47 0.24 6.37 0.15C6.28 0.05 6.15 0 6.01 0C5.87 0 5.74 0.05 5.65 0.15C5.55 0.24 5.5 0.37 5.5 0.51L5.5 2.06L4.29 2.06C3.24 2.06 2.24 2.47 1.5 3.22C0.75 3.96 0.34 4.96 0.34 6.01C0.34 7.06 0.75 8.06 1.5 8.81C2.24 9.55 3.24 9.96 4.29 9.96L5.5 9.96L5.5 15.81L3.95 15.81C3.17 15.81 2.43 15.5 1.88 14.95C1.33 14.4 1.03 13.66 1.03 12.89C1.03 12.75 0.97 12.62 0.87 12.52C0.78 12.42 0.65 12.37 0.51 12.37C0.37 12.37 0.24 12.42 0.15 12.52C0.05 12.62 0 12.75 0 12.89C0 13.93 0.41 14.94 1.15 15.68C1.9 16.42 2.9 16.84 3.95 16.84L5.5 16.84L5.5 18.39C5.5 18.52 5.55 18.65 5.65 18.75C5.74 18.85 5.87 18.9 6.01 18.9C6.15 18.9 6.28 18.85 6.37 18.75C6.47 18.65 6.53 18.52 6.53 18.39L6.53 16.84L8.07 16.84C9.12 16.84 10.13 16.42 10.87 15.68C11.61 14.94 12.03 13.93 12.03 12.89C12.03 11.84 11.61 10.83 10.87 10.09C10.13 9.35 9.12 8.93 8.07 8.93ZM4.29 8.93C3.52 8.93 2.77 8.62 2.23 8.08C1.68 7.53 1.37 6.79 1.37 6.01C1.37 5.24 1.68 4.49 2.23 3.94C2.77 3.4 3.52 3.09 4.29 3.09L5.5 3.09L5.5 8.93L4.29 8.93ZM8.07 15.81L6.53 15.81L6.53 9.96L8.07 9.96C8.85 9.96 9.59 10.27 10.14 10.82C10.69 11.37 11 12.11 11 12.89C11 13.66 10.69 14.4 10.14 14.95C9.59 15.5 8.85 15.81 8.07 15.81Z" fill="#000000" fill-opacity="1.000000" fill-rule="nonzero"/>
</svg>
