<svg width="14.543945" height="17.679688" viewBox="0 0 14.5439 17.6797" fill="none" xmlns="http://www.w3.org/2000/svg" xmlns:xlink="http://www.w3.org/1999/xlink">
	<desc>
			Created with Pixso.
	</desc>
	<defs/>
	<path id="Vector" d="M13.73 9.93L4.98 9.93C5.61 9.65 6.29 9.43 6.98 9.21C8.25 8.82 9.55 8.41 10.61 7.52L13.73 7.52C13.98 7.52 14.19 7.32 14.19 7.06C14.19 6.81 13.98 6.61 13.73 6.61L11.43 6.61C11.97 5.76 12.11 4.71 11.78 3.65C11.29 2.08 9.91 0.76 8.4 0.45C7.01 0.16 5.45 0.48 4.24 1.29C3.19 2 2.49 3.04 2.27 4.21C2.22 4.45 2.39 4.69 2.64 4.74C2.89 4.78 3.13 4.62 3.17 4.37C3.34 3.45 3.9 2.62 4.76 2.05C5.76 1.37 7.06 1.11 8.22 1.35C9.41 1.59 10.51 2.65 10.9 3.92C11.08 4.49 11.24 5.59 10.35 6.52C10.32 6.55 10.28 6.58 10.25 6.61L0.8 6.61C0.55 6.61 0.34 6.81 0.34 7.06C0.34 7.32 0.55 7.52 0.8 7.52L8.92 7.52C8.24 7.86 7.49 8.1 6.71 8.34C5.5 8.72 4.25 9.11 3.21 9.93L0.8 9.93C0.55 9.93 0.34 10.14 0.34 10.39C0.34 10.64 0.55 10.85 0.8 10.85L2.34 10.85C1.61 11.98 1.59 13.54 2.35 14.89C3.34 16.63 5.25 17.32 7.08 17.32C7.72 17.32 8.34 17.24 8.92 17.09C11.34 16.45 12.83 14.76 12.83 12.68C12.83 12.42 12.62 12.22 12.37 12.22C12.37 12.22 12.37 12.22 12.37 12.22C12.12 12.22 11.91 12.42 11.91 12.68C11.92 14.65 10.25 15.79 8.69 16.2C6.72 16.72 4.19 16.28 3.15 14.44C2.58 13.43 2.43 11.9 3.45 10.93C3.48 10.9 3.51 10.87 3.54 10.85L13.73 10.85C13.98 10.85 14.19 10.64 14.19 10.39C14.19 10.14 13.98 9.93 13.73 9.93Z" fill="#1D1C1A" fill-opacity="1.000000" fill-rule="nonzero"/>
	<path id="Vector" d="M4.98 9.93C5.61 9.65 6.29 9.43 6.98 9.21C8.25 8.82 9.55 8.41 10.61 7.52L13.73 7.52C13.98 7.52 14.19 7.32 14.19 7.06C14.19 6.81 13.98 6.61 13.73 6.61L11.43 6.61C11.97 5.76 12.11 4.71 11.78 3.65C11.29 2.08 9.91 0.76 8.4 0.45C7.01 0.16 5.45 0.48 4.24 1.29C3.19 2 2.49 3.04 2.27 4.21C2.22 4.45 2.39 4.69 2.64 4.74C2.89 4.78 3.13 4.62 3.17 4.37C3.34 3.45 3.9 2.62 4.76 2.05C5.76 1.37 7.06 1.11 8.22 1.35C9.41 1.59 10.51 2.65 10.9 3.92C11.08 4.49 11.24 5.59 10.35 6.52C10.32 6.55 10.28 6.58 10.25 6.61L0.8 6.61C0.55 6.61 0.34 6.81 0.34 7.06C0.34 7.32 0.55 7.52 0.8 7.52L8.92 7.52C8.24 7.86 7.49 8.1 6.71 8.34C5.5 8.72 4.25 9.11 3.21 9.93L0.8 9.93C0.55 9.93 0.34 10.14 0.34 10.39C0.34 10.64 0.55 10.85 0.8 10.85L2.34 10.85C1.61 11.98 1.59 13.54 2.35 14.89C3.34 16.63 5.25 17.32 7.08 17.32C7.72 17.32 8.34 17.24 8.92 17.09C11.34 16.45 12.83 14.76 12.83 12.68C12.83 12.42 12.62 12.22 12.37 12.22C12.37 12.22 12.37 12.22 12.37 12.22C12.12 12.22 11.91 12.42 11.91 12.68C11.92 14.65 10.25 15.79 8.69 16.2C6.72 16.72 4.19 16.28 3.15 14.44C2.58 13.43 2.43 11.9 3.45 10.93C3.48 10.9 3.51 10.87 3.54 10.85L13.73 10.85C13.98 10.85 14.19 10.64 14.19 10.39C14.19 10.14 13.98 9.93 13.73 9.93L4.98 9.93Z" stroke="#000000" stroke-opacity="1.000000" stroke-width="0.700000"/>
</svg>
